# xmcd
#
# Track frame offsets:
#	150
#	26556
#	56761
#	86479
#	105002
#	135860
#	169309
#	200410
#
# Disc length: 3046 seconds
#
# Revision: 4
# Processed by: cddbd v1.4PL0 Copyright (c) Steve Scherf et al.
# Submitted via: dBpowerAMP V4.0
#
DISCID=5b0be408
DTITLE=Various Artist - underconstructing #01
DYEAR=1900
DGENRE=electronica
TTITLE0=Na+  -  ionchannel
TTITLE1=Three Places In A Living Room  -  slassen
TTITLE2=Manhunt  -  heki
TTITLE3=Cyclic AMP  -  ionchannel
TTITLE4=Catastrophe Point  -  slassen
TTITLE5=Far Cry  -  heki
TTITLE6=Asian Traveller  -  ionchannel
TTITLE7=Offrump  -  pepe
EXTD=
EXTT0=
EXTT1=
EXTT2=
EXTT3=
EXTT4=
EXTT5=
EXTT6=
EXTT7=
PLAYORDER=
